
<svg width="240" height="240" viewBox="0 0 240 240" fill="none" xmlns="http://www.w3.org/2000/svg">
<path d="M10 120C10 134.445 12.8452 148.749 18.373 162.095C23.9011 175.441 32.0033 187.568 42.2178 197.782C52.4322 207.997 64.5595 216.099 77.9053 221.627C91.251 227.155 105.555 230 120 230V240C104.241 240 88.6372 236.896 74.0781 230.865C59.5191 224.835 46.2905 215.996 35.1475 204.853C24.0044 193.71 15.1653 180.481 9.13477 165.922C3.1042 151.363 0 135.759 0 120H10ZM120 0C135.759 0 151.363 3.1042 165.922 9.13477C180.481 15.1653 193.71 24.0044 204.853 35.1475C215.996 46.2905 224.835 59.5191 230.865 74.0781C236.896 88.6372 240 104.241 240 120H230C230 105.555 227.155 91.251 221.627 77.9053C216.099 64.5595 207.997 52.4322 197.782 42.2178C187.568 32.0033 175.441 23.9011 162.095 18.373C148.749 12.8452 134.445 10 120 10V0Z" fill="currentColor"/>
</svg>
